<svg width="36" height="36" viewBox="0 0 36 36" fill="none" xmlns="http://www.w3.org/2000/svg">
<path d="M25.5234 27.9883C26.3203 27.9883 27.0117 28.293 27.5977 28.9023C28.1836 29.5117 28.4766 30.2148 28.4766 31.0117C28.4766 31.832 28.1836 32.5352 27.5977 33.1211C27.0352 33.6836 26.3438 33.9648 25.5234 33.9648C24.7266 33.9648 24.0234 33.6836 23.4141 33.1211C22.8047 32.5352 22.5 31.832 22.5 31.0117C22.5 30.2148 22.793 29.5117 23.3789 28.9023C23.9883 28.293 24.7031 27.9883 25.5234 27.9883ZM1.47656 4.01172H6.39844L7.80469 6.96484H30.0234C30.4453 6.96484 30.7969 7.11719 31.0781 7.42188C31.3594 7.72656 31.5 8.08984 31.5 8.51172C31.5 8.65234 31.4766 8.78125 31.4297 8.89844C31.4062 9.01563 31.3594 9.12109 31.2891 9.21484L25.9453 18.918C25.7109 19.3867 25.3594 19.7617 24.8906 20.043C24.4219 20.3242 23.9062 20.4648 23.3438 20.4648H12.1641L10.8281 22.9258L10.7578 23.1367C10.7578 23.2539 10.7812 23.3477 10.8281 23.418C10.8984 23.4648 10.9922 23.4883 11.1094 23.4883H28.4766V26.5117H10.4766C9.67969 26.5117 8.98828 26.2188 8.40234 25.6328C7.81641 25.0234 7.52344 24.3086 7.52344 23.4883C7.52344 23.2539 7.54688 23.0195 7.59375 22.7852C7.66406 22.5273 7.75781 22.293 7.875 22.082L9.91406 18.3555L4.5 6.96484H1.47656V4.01172ZM10.4766 27.9883C11.2734 27.9883 11.9766 28.293 12.5859 28.9023C13.1953 29.5117 13.5 30.2148 13.5 31.0117C13.5 31.832 13.1953 32.5352 12.5859 33.1211C12 33.6836 11.2969 33.9648 10.4766 33.9648C9.67969 33.9648 8.98828 33.6836 8.40234 33.1211C7.81641 32.5352 7.52344 31.832 7.52344 31.0117C7.52344 30.2148 7.80469 29.5117 8.36719 28.9023C8.95312 28.293 9.65625 27.9883 10.4766 27.9883Z" fill="#EF5F8A"/>
</svg>
