<svg width="30" height="28" viewBox="0 0 30 28" fill="none" xmlns="http://www.w3.org/2000/svg">
<path d="M18.2891 13.2852L16.1094 15.4648L26.4453 25.8008L24.3359 27.9102L14 17.5742L3.66406 27.9102L1.55469 25.8008L16.1797 11.1758C15.6641 10.0273 15.582 8.71484 15.9336 7.23828C16.3086 5.76172 17.0938 4.42578 18.2891 3.23047C19.7188 1.80078 21.3242 0.980469 23.1055 0.769531C24.8867 0.535156 26.3281 0.957031 27.4297 2.03516C28.5078 3.13672 28.9414 4.58984 28.7305 6.39453C28.5195 8.19922 27.6875 9.81641 26.2344 11.2461C25.0391 12.4414 23.7031 13.2148 22.2266 13.5664C20.7734 13.918 19.4609 13.8242 18.2891 13.2852ZM8.16406 16.0273L1.83594 9.69922C0.6875 8.55078 0.113281 7.15625 0.113281 5.51562C0.113281 3.85156 0.6875 2.43359 1.83594 1.26172L12.3828 11.7383L8.16406 16.0273Z" fill="#F6BA75"/>
</svg>
