<svg width="36" height="36" viewBox="0 0 36 36" fill="none" xmlns="http://www.w3.org/2000/svg">
<path d="M26.8594 27.0742C27.8438 26.0195 28.6172 24.8008 29.1797 23.418C29.7422 22.0117 30.0234 20.5352 30.0234 18.9883C30.0234 17.7461 29.8359 16.5508 29.4609 15.4023C29.1094 14.2539 28.5938 13.1992 27.9141 12.2383C27.2578 11.2773 26.4727 10.4219 25.5586 9.67188C24.6211 8.92187 23.6016 8.32422 22.5 7.87891V8.51172C22.5 9.33203 22.1953 10.0352 21.5859 10.6211C21 11.1836 20.2969 11.4648 19.4766 11.4648H16.5234V14.4883C16.5234 14.9102 16.3711 15.2617 16.0664 15.543C15.7617 15.8242 15.3984 15.9648 14.9766 15.9648H12.0234V18.9883H21.0234C21.4453 18.9883 21.7969 19.1289 22.0781 19.4102C22.3594 19.6914 22.5 20.043 22.5 20.4648V24.9648H23.9766C24.6328 24.9648 25.2188 25.1758 25.7344 25.5977C26.2734 25.9961 26.6484 26.4883 26.8594 27.0742ZM16.5234 30.8711V27.9883C15.7266 27.9883 15.0234 27.6953 14.4141 27.1094C13.8047 26.5 13.5 25.7852 13.5 24.9648V23.4883L6.32812 16.3164C6.23438 16.7383 6.15234 17.1836 6.08203 17.6523C6.01172 18.0977 5.97656 18.543 5.97656 18.9883C5.97656 20.5352 6.24609 21.9883 6.78516 23.3477C7.32422 24.707 8.0625 25.9141 9 26.9688C9.96094 28.0234 11.0859 28.9023 12.375 29.6055C13.6641 30.2852 15.0469 30.707 16.5234 30.8711ZM18 4.01172C20.0625 4.01172 22.0078 4.41016 23.8359 5.20703C25.6641 5.98047 27.2461 7.04688 28.582 8.40625C29.9414 9.76562 31.0195 11.3477 31.8164 13.1523C32.5898 14.9805 32.9766 16.9258 32.9766 18.9883C32.9766 21.0742 32.5898 23.0195 31.8164 24.8242C31.0195 26.6523 29.9414 28.2461 28.582 29.6055C27.2461 30.9648 25.6641 32.0312 23.8359 32.8047C22.0312 33.5781 20.0859 33.9648 18 33.9648C15.9375 33.9648 13.9922 33.5781 12.1641 32.8047C10.3359 32.0312 8.74219 30.9648 7.38281 29.6055C6.04688 28.2461 4.98047 26.6523 4.18359 24.8242C3.41016 23.0195 3.02344 21.0742 3.02344 18.9883C3.02344 16.9258 3.41016 14.9805 4.18359 13.1523C4.98047 11.3477 6.04688 9.76562 7.38281 8.40625C8.74219 7.04688 10.3359 5.98047 12.1641 5.20703C13.9688 4.41016 15.9141 4.01172 18 4.01172Z" fill="#3999E3"/>
</svg>
