<svg width="36" height="36" viewBox="0 0 36 36" fill="none" xmlns="http://www.w3.org/2000/svg">
<path d="M7.52344 17.5117H28.4766L26.2266 10.7617H9.77344L7.52344 17.5117ZM26.2266 24.9648C26.8594 24.9648 27.3867 24.7539 27.8086 24.332C28.2539 23.8867 28.4766 23.3477 28.4766 22.7148C28.4766 22.082 28.2539 21.5547 27.8086 21.1328C27.3867 20.6875 26.8594 20.4648 26.2266 20.4648C25.5938 20.4648 25.0547 20.6875 24.6094 21.1328C24.1875 21.5547 23.9766 22.082 23.9766 22.7148C23.9766 23.3477 24.1875 23.8867 24.6094 24.332C25.0547 24.7539 25.5938 24.9648 26.2266 24.9648ZM9.77344 24.9648C10.4062 24.9648 10.9336 24.7539 11.3555 24.332C11.8008 23.8867 12.0234 23.3477 12.0234 22.7148C12.0234 22.082 11.8008 21.5547 11.3555 21.1328C10.9336 20.6875 10.4062 20.4648 9.77344 20.4648C9.14062 20.4648 8.60156 20.6875 8.15625 21.1328C7.73438 21.5547 7.52344 22.082 7.52344 22.7148C7.52344 23.3477 7.73438 23.8867 8.15625 24.332C8.60156 24.7539 9.14062 24.9648 9.77344 24.9648ZM28.4062 9.98828L31.5 18.9883V31.0117C31.5 31.4336 31.3594 31.7852 31.0781 32.0664C30.7969 32.3477 30.4453 32.4883 30.0234 32.4883H28.4766C28.0547 32.4883 27.7031 32.3477 27.4219 32.0664C27.1406 31.7852 27 31.4336 27 31.0117V29.4648H9V31.0117C9 31.4336 8.85938 31.7852 8.57812 32.0664C8.29688 32.3477 7.94531 32.4883 7.52344 32.4883H5.97656C5.55469 32.4883 5.20312 32.3477 4.92188 32.0664C4.64062 31.7852 4.5 31.4336 4.5 31.0117V18.9883L7.59375 9.98828C7.73438 9.54297 8.00391 9.19141 8.40234 8.93359C8.82422 8.65234 9.28125 8.51172 9.77344 8.51172H26.2266C26.7188 8.51172 27.1641 8.65234 27.5625 8.93359C27.9844 9.19141 28.2656 9.54297 28.4062 9.98828Z" fill="#673E88"/>
</svg>
